<svg width="128" height="128" viewBox="0 0 128 128" fill="none" xmlns="http://www.w3.org/2000/svg">
<rect width="128" height="128" fill="#152945"/>
<path d="M58.771 49.405L48.838 40.1815V57.387H34.089C40.235 66.747 51.33 73 64 73C76.67 73 87.7649 66.747 93.9039 57.387H79.155V40.1815L69.229 49.405L64 54.2605L58.771 49.405V49.405Z" fill="white"/>
<path d="M64 8C44.673 8 29 22.5535 29 40.5C28.9939 43.9882 29.5968 47.4544 30.785 50.7635H41.25V23.418L64 44.543L86.75 23.418V50.7635H97.215C98.3994 47.4535 99.0021 43.988 99 40.5C99 22.5535 83.327 8 64 8" fill="white"/>
<path d="M19.528 93.328V94.938H22.678V97.024H19.528V98.802H23.098V101H16.784V91.13H23.098V93.328H19.528ZM30.6979 99.39H27.1979L26.6659 101H23.7819L27.3799 91.13H30.5439L34.1279 101H31.2299L30.6979 99.39ZM30.0119 97.29L28.9479 94.098L27.8979 97.29H30.0119ZM38.7463 101.098C37.5983 101.098 36.6556 100.827 35.9183 100.286C35.1809 99.7353 34.7843 98.9513 34.7283 97.934H37.6543C37.6823 98.2793 37.7849 98.5313 37.9623 98.69C38.1396 98.8487 38.3683 98.928 38.6483 98.928C38.9003 98.928 39.1056 98.8673 39.2643 98.746C39.4323 98.6153 39.5163 98.438 39.5163 98.214C39.5163 97.9247 39.3809 97.7007 39.1103 97.542C38.8396 97.3833 38.4009 97.206 37.7943 97.01C37.1503 96.7953 36.6276 96.59 36.2263 96.394C35.8343 96.1887 35.4889 95.8947 35.1903 95.512C34.9009 95.12 34.7563 94.6113 34.7563 93.986C34.7563 93.3513 34.9149 92.81 35.2323 92.362C35.5496 91.9047 35.9883 91.5593 36.5483 91.326C37.1083 91.0927 37.7429 90.976 38.4523 90.976C39.6003 90.976 40.5149 91.2467 41.1963 91.788C41.8869 92.32 42.2556 93.0713 42.3023 94.042H39.3203C39.3109 93.7433 39.2176 93.5193 39.0403 93.37C38.8723 93.2207 38.6529 93.146 38.3823 93.146C38.1769 93.146 38.0089 93.2067 37.8783 93.328C37.7476 93.4493 37.6823 93.622 37.6823 93.846C37.6823 94.0327 37.7523 94.196 37.8923 94.336C38.0416 94.4667 38.2236 94.5833 38.4383 94.686C38.6529 94.7793 38.9703 94.9007 39.3903 95.05C40.0156 95.2647 40.5289 95.4793 40.9303 95.694C41.3409 95.8993 41.6909 96.1933 41.9803 96.576C42.2789 96.9493 42.4283 97.4253 42.4283 98.004C42.4283 98.592 42.2789 99.1193 41.9803 99.586C41.6909 100.053 41.2663 100.421 40.7063 100.692C40.1556 100.963 39.5023 101.098 38.7463 101.098ZM52.6779 91.13L49.2059 97.864V101H46.4479V97.864L42.9759 91.13H46.1119L47.8479 94.938L49.5839 91.13H52.6779Z" fill="#00A3FF"/>
<path d="M53.1843 96.044C53.1843 95.0733 53.385 94.21 53.7863 93.454C54.197 92.6887 54.7757 92.096 55.5223 91.676C56.269 91.2467 57.1277 91.032 58.0983 91.032C59.3303 91.032 60.3663 91.3633 61.2063 92.026C62.0463 92.6793 62.5877 93.5707 62.8303 94.7H59.8763C59.699 94.3267 59.4517 94.042 59.1343 93.846C58.8263 93.65 58.467 93.552 58.0563 93.552C57.4217 93.552 56.913 93.7807 56.5303 94.238C56.157 94.686 55.9703 95.288 55.9703 96.044C55.9703 96.8093 56.157 97.4207 56.5303 97.878C56.913 98.326 57.4217 98.55 58.0563 98.55C58.467 98.55 58.8263 98.452 59.1343 98.256C59.4517 98.06 59.699 97.7753 59.8763 97.402H62.8303C62.5877 98.5313 62.0463 99.4273 61.2063 100.09C60.3663 100.743 59.3303 101.07 58.0983 101.07C57.1277 101.07 56.269 100.86 55.5223 100.44C54.7757 100.011 54.197 99.418 53.7863 98.662C53.385 97.8967 53.1843 97.024 53.1843 96.044ZM69.1277 101L67.1677 97.36H66.8737V101H64.1297V91.13H68.4557C69.249 91.13 69.921 91.27 70.4717 91.55C71.0224 91.8207 71.4377 92.1987 71.7177 92.684C71.9977 93.16 72.1377 93.6967 72.1377 94.294C72.1377 94.966 71.951 95.5587 71.5777 96.072C71.2137 96.576 70.677 96.9353 69.9677 97.15L72.1937 101H69.1277ZM66.8737 95.484H68.2317C68.605 95.484 68.885 95.3953 69.0717 95.218C69.2584 95.0407 69.3517 94.784 69.3517 94.448C69.3517 94.1307 69.2537 93.8833 69.0577 93.706C68.871 93.5193 68.5957 93.426 68.2317 93.426H66.8737V95.484ZM82.3596 91.13L78.8876 97.864V101H76.1296V97.864L72.6576 91.13H75.7936L77.5296 94.938L79.2656 91.13H82.3596ZM91 94.42C91 95.0173 90.86 95.5633 90.58 96.058C90.3093 96.5433 89.894 96.9353 89.334 97.234C88.7833 97.5233 88.1066 97.668 87.304 97.668H85.946V101H83.202V91.13H87.304C88.0973 91.13 88.7693 91.27 89.32 91.55C89.88 91.83 90.3 92.2173 90.58 92.712C90.86 93.2067 91 93.776 91 94.42ZM87.038 95.484C87.8126 95.484 88.2 95.1293 88.2 94.42C88.2 93.7013 87.8126 93.342 87.038 93.342H85.946V95.484H87.038ZM99.5364 91.13V93.314H96.9044V101H94.1604V93.314H91.5564V91.13H99.5364ZM105.284 101.098C104.36 101.098 103.51 100.883 102.736 100.454C101.961 100.015 101.345 99.4133 100.888 98.648C100.44 97.8733 100.216 97.0007 100.216 96.03C100.216 95.0593 100.44 94.1913 100.888 93.426C101.345 92.6513 101.961 92.0493 102.736 91.62C103.51 91.1907 104.36 90.976 105.284 90.976C106.217 90.976 107.066 91.1907 107.832 91.62C108.606 92.0493 109.218 92.6513 109.666 93.426C110.114 94.1913 110.338 95.0593 110.338 96.03C110.338 97.0007 110.114 97.8733 109.666 98.648C109.218 99.4133 108.606 100.015 107.832 100.454C107.057 100.883 106.208 101.098 105.284 101.098ZM105.284 98.55C105.984 98.55 106.534 98.3213 106.936 97.864C107.346 97.4067 107.552 96.7953 107.552 96.03C107.552 95.246 107.346 94.63 106.936 94.182C106.534 93.7247 105.984 93.496 105.284 93.496C104.574 93.496 104.019 93.7247 103.618 94.182C103.216 94.63 103.016 95.246 103.016 96.03C103.016 96.8047 103.216 97.4207 103.618 97.878C104.019 98.326 104.574 98.55 105.284 98.55Z" fill="white"/>
</svg>
